<svg width="16" height="14" viewBox="0 0 16 14" fill="none" xmlns="http://www.w3.org/2000/svg">
<path d="M4.75322 0.193802C5.0626 0.471927 5.0876 0.943802 4.80947 1.25318L2.55947 3.75318C2.42197 3.9063 2.22822 3.99693 2.02197 4.00005C1.81572 4.00318 1.61885 3.92505 1.47197 3.7813L0.218848 2.5313C-0.0717774 2.23755 -0.0717774 1.76255 0.218848 1.4688C0.509473 1.17505 0.987598 1.17505 1.27822 1.4688L1.96885 2.15943L3.69072 0.246927C3.96885 -0.0624482 4.44072 -0.0874483 4.7501 0.190677L4.75322 0.193802ZM4.75322 5.1938C5.0626 5.47193 5.0876 5.9438 4.80947 6.25318L2.55947 8.75318C2.42197 8.9063 2.22822 8.99693 2.02197 9.00005C1.81572 9.00318 1.61885 8.92505 1.47197 8.7813L0.218848 7.5313C-0.0749023 7.23755 -0.0749023 6.76255 0.218848 6.47193C0.512598 6.1813 0.987598 6.17818 1.27822 6.47193L1.96885 7.16255L3.69072 5.25005C3.96885 4.94068 4.44072 4.91568 4.7501 5.1938H4.75322ZM7.0001 2.00005C7.0001 1.44693 7.44697 1.00005 8.0001 1.00005H15.0001C15.5532 1.00005 16.0001 1.44693 16.0001 2.00005C16.0001 2.55318 15.5532 3.00005 15.0001 3.00005H8.0001C7.44697 3.00005 7.0001 2.55318 7.0001 2.00005ZM7.0001 7.00005C7.0001 6.44693 7.44697 6.00005 8.0001 6.00005H15.0001C15.5532 6.00005 16.0001 6.44693 16.0001 7.00005C16.0001 7.55318 15.5532 8.00005 15.0001 8.00005H8.0001C7.44697 8.00005 7.0001 7.55318 7.0001 7.00005ZM5.0001 12.0001C5.0001 11.4469 5.44697 11.0001 6.0001 11.0001H15.0001C15.5532 11.0001 16.0001 11.4469 16.0001 12.0001C16.0001 12.5532 15.5532 13.0001 15.0001 13.0001H6.0001C5.44697 13.0001 5.0001 12.5532 5.0001 12.0001ZM1.5001 10.5001C1.89792 10.5001 2.27945 10.6581 2.56076 10.9394C2.84206 11.2207 3.0001 11.6022 3.0001 12.0001C3.0001 12.3979 2.84206 12.7794 2.56076 13.0607C2.27945 13.342 1.89792 13.5001 1.5001 13.5001C1.10227 13.5001 0.720742 13.342 0.439437 13.0607C0.158133 12.7794 9.76473e-05 12.3979 9.76473e-05 12.0001C9.76473e-05 11.6022 0.158133 11.2207 0.439437 10.9394C0.720742 10.6581 1.10227 10.5001 1.5001 10.5001Z" fill="white"/>
</svg>
