<svg width="14" height="8" viewBox="0 0 14 8" fill="none" xmlns="http://www.w3.org/2000/svg">
<path d="M7.42215 0.296442C7.37684 0.261755 7.32867 0.230978 7.27815 0.204442C7.22304 0.160999 7.16375 0.123146 7.10115 0.0914424C7.03606 0.0707954 6.96905 0.0567251 6.90115 0.0494424C6.77291 0.00695669 6.63439 0.00695669 6.50615 0.0494424C6.43825 0.0567251 6.37125 0.0707954 6.30615 0.0914424C6.2439 0.123204 6.18494 0.161055 6.13015 0.204442C6.07826 0.230779 6.02874 0.261561 5.98215 0.296442L0.699151 5.93744C0.518928 6.14407 0.425958 6.41259 0.439833 6.68642C0.453709 6.96025 0.573347 7.218 0.773534 7.40535C0.973721 7.59271 1.23882 7.69503 1.51297 7.69075C1.78712 7.68648 2.0489 7.57594 2.24315 7.38244L6.76315 2.56644L11.2832 7.38244C11.4774 7.57594 11.7392 7.68648 12.0133 7.69075C12.2875 7.69503 12.5526 7.59271 12.7528 7.40535C12.953 7.218 13.0726 6.96025 13.0865 6.68642C13.1003 6.41259 13.0074 6.14407 12.8272 5.93744L7.42215 0.296442Z" fill="#959DB3"/>
</svg>
