<svg width="8" height="15" viewBox="0 0 8 15" fill="none" xmlns="http://www.w3.org/2000/svg">
<path d="M7.41108 8.55183C7.44576 8.50183 7.47654 8.44867 7.50308 8.39293C7.54652 8.33212 7.58437 8.2667 7.61608 8.19762C7.63672 8.12579 7.65079 8.05186 7.65808 7.97693C7.70056 7.83543 7.70056 7.68257 7.65808 7.54107C7.65079 7.46614 7.63672 7.39221 7.61608 7.32038C7.58432 7.25168 7.54646 7.18663 7.50308 7.12617C7.47674 7.06891 7.44596 7.01427 7.41108 6.96286V6.96286L1.77007 1.13334C1.56344 0.934477 1.29492 0.831889 1.02109 0.8472C0.74726 0.862511 0.48951 0.994525 0.302158 1.21542C0.114807 1.43632 0.0124869 1.72884 0.0167611 2.03135C0.0210353 2.33386 0.13157 2.62272 0.325071 2.83707L5.14107 7.82465L0.325071 12.8122C0.13157 13.0266 0.0210353 13.3154 0.0167611 13.618C0.0124869 13.9205 0.114807 14.213 0.302158 14.4339C0.48951 14.6548 0.74726 14.7868 1.02109 14.8021C1.29492 14.8174 1.56344 14.7148 1.77007 14.516L7.41108 8.55183Z" fill="black"/>
</svg>
