<svg width="8" height="15" viewBox="0 0 8 15" fill="none" xmlns="http://www.w3.org/2000/svg">
<path d="M0.278864 7.09743C0.244177 7.14743 0.2134 7.20059 0.186864 7.25633C0.143421 7.31714 0.105568 7.38256 0.0738643 7.45164C0.0532173 7.52347 0.039147 7.5974 0.0318643 7.67233C-0.0106214 7.81384 -0.0106214 7.96669 0.0318643 8.10819C0.039147 8.18312 0.0532173 8.25705 0.0738643 8.32888C0.105625 8.39758 0.143477 8.46263 0.186864 8.52309C0.213201 8.58035 0.243983 8.635 0.278864 8.6864V8.6864L5.91986 14.5159C6.12649 14.7148 6.39501 14.8174 6.66884 14.8021C6.94267 14.7868 7.20042 14.6547 7.38778 14.4338C7.57513 14.2129 7.67745 13.9204 7.67317 13.6179C7.6689 13.3154 7.55836 13.0265 7.36486 12.8122L2.54886 7.82461L7.36486 2.83702C7.55836 2.62268 7.6689 2.33381 7.67317 2.0313C7.67745 1.7288 7.57513 1.43627 7.38778 1.21537C7.20042 0.994478 6.94267 0.862463 6.66884 0.847152C6.39501 0.831841 6.12649 0.934429 5.91986 1.1333L0.278864 7.09743Z" fill="black"/>
</svg>
