<svg width="22" height="12" viewBox="0 0 22 12" fill="none" xmlns="http://www.w3.org/2000/svg">
<path d="M11 0C6.34464 0 2.17054 2.41406 0 6C2.17545 9.58594 6.34955 12 11 12C15.6504 12 19.8295 9.58594 22 6C19.8295 2.41406 15.6554 0 11 0ZM9.42857 3C10.2978 3 11 3.67031 11 4.5C11 5.32969 10.2978 6 9.42857 6C8.55937 6 7.85714 5.32969 7.85714 4.5C7.85714 3.67031 8.55937 3 9.42857 3ZM1.85625 6C2.75982 4.7625 4.05625 3.71719 5.42143 2.94844C6.02053 2.61094 6.65402 2.32969 7.30714 2.10938C6.19732 3.07031 5.5 4.45781 5.5 6C5.5 7.54219 6.19732 8.92969 7.30714 9.89062C6.65402 9.67031 6.02053 9.38906 5.42143 9.05156C4.05625 8.28281 2.75982 7.2375 1.85625 6ZM16.5786 9.05156C15.9795 9.38906 15.346 9.67031 14.6929 9.89062C15.8027 8.92969 16.5 7.54219 16.5 6C16.5 4.45781 15.8027 3.07031 14.6929 2.10938C15.346 2.32969 15.9795 2.61094 16.5786 2.94844C17.9437 3.71719 19.2402 4.7625 20.1438 6C19.2353 7.2375 17.9437 8.28281 16.5786 9.05156Z" fill="white"/>
</svg>
