<svg width="17" height="20" viewBox="0 0 17 20" fill="none" xmlns="http://www.w3.org/2000/svg">
<path d="M17 3.21429H12.3636V1.85714C12.3636 1.11071 11.6682 0.5 10.8182 0.5H6.18182C5.33182 0.5 4.63636 1.11071 4.63636 1.85714V3.21429H0V5.92857H1.54545V18.1429C1.54545 18.8893 2.24091 19.5 3.09091 19.5H13.9091C14.7591 19.5 15.4545 18.8893 15.4545 18.1429V5.92857H17V3.21429ZM6.18182 1.85714H10.8134L10.8182 1.86138V3.21429H6.18182C6.18665 3.21004 6.18665 1.8529 6.18182 1.85714ZM13.9091 18.1429H3.09574L3.09091 18.1386V5.92857H4.63636V16.7857H6.18182V5.92857H7.72727V16.7857H9.27273V5.92857H10.8182V16.7857H12.3636V5.92857H13.9091V18.1429Z" fill="white"/>
</svg>
