<svg width="18" height="17" viewBox="0 0 18 17" fill="none" xmlns="http://www.w3.org/2000/svg">
<path d="M8.44944 16.1863C6.20851 16.1863 4.05936 15.3336 2.47478 13.8159C0.890206 12.2981 0 10.2397 0 8.09325C0 5.94685 0.890206 3.88835 2.47478 2.37062C4.05936 0.852881 6.20851 0.000225513 8.44944 0.000225513C10.0297 -0.0111764 11.5804 0.409996 12.9192 1.21418L12.1059 2.46455C11.0105 1.80613 9.74157 1.46112 8.44838 1.47012C7.08082 1.46812 5.74337 1.85469 4.60524 2.58092C3.46711 3.30715 2.57945 4.3404 2.05456 5.54995C1.52967 6.75951 1.39115 8.091 1.65651 9.37598C1.92187 10.661 2.5792 11.8417 3.54532 12.7688C4.51145 13.6958 5.74296 14.3276 7.08404 14.5841C8.42512 14.8406 9.8155 14.7104 11.0793 14.2099C12.3431 13.7093 13.4235 12.861 14.1838 11.7722C14.9441 10.6834 15.3501 9.40312 15.3505 8.09325C15.3529 7.50892 15.282 6.92643 15.1393 6.35831L16.6264 6.00221C16.7996 6.68679 16.8861 7.38886 16.8841 8.09325C16.8841 10.2372 15.9959 12.2935 14.4145 13.8109C12.8332 15.3282 10.6878 16.1825 8.44944 16.1863Z" fill="#959DB3"/>
<path d="M8.43357 10.2992C8.22994 10.2991 8.03466 10.2216 7.89069 10.0837L4.27539 6.62088L5.36114 5.58092L8.43357 8.52375L16.883 0.430725L17.9688 1.47068L8.97645 10.0837C8.83248 10.2216 8.6372 10.2991 8.43357 10.2992Z" fill="#959DB3"/>
</svg>
