<svg width="7" height="12" viewBox="0 0 7 12" fill="none" xmlns="http://www.w3.org/2000/svg">
<path d="M2.02506 8.656V8.016C2.02506 7.51467 2.12106 7.05067 2.31306 6.624C2.50506 6.19733 2.83573 5.73333 3.30506 5.232C3.65706 4.85867 3.9024 4.53333 4.04106 4.256C4.1904 3.968 4.26506 3.68 4.26506 3.392C4.26506 3.02933 4.1264 2.74667 3.84906 2.544C3.5824 2.34133 3.20906 2.24 2.72906 2.24C2.31306 2.24 1.9024 2.304 1.49706 2.432C1.09173 2.56 0.707729 2.73067 0.345062 2.944V1.216C0.718396 1.00267 1.13973 0.842666 1.60906 0.735999C2.08906 0.618666 2.5584 0.559999 3.01706 0.559999C3.6464 0.559999 4.2064 0.656 4.69706 0.848C5.1984 1.02933 5.58773 1.312 5.86506 1.696C6.15306 2.06933 6.29706 2.54933 6.29706 3.136C6.29706 3.488 6.23306 3.82933 6.10506 4.16C5.98773 4.48 5.81706 4.78933 5.59306 5.088C5.36906 5.38667 5.09173 5.68533 4.76106 5.984C4.2384 6.44267 3.87573 6.84267 3.67306 7.184C3.4704 7.52533 3.34773 7.86667 3.30506 8.208L3.24106 8.656H2.02506ZM1.51306 12V9.776H3.75306V12H1.51306Z" fill="white"/>
</svg>
