<svg width="8" height="9" viewBox="0 0 8 9" fill="none" xmlns="http://www.w3.org/2000/svg">
<path d="M2.67277 8.51537C2.5576 8.51538 2.44406 8.48759 2.34137 8.43427C2.23868 8.38094 2.14974 8.30358 2.08177 8.20848L0.146781 5.61632C0.0863604 5.53662 0.042188 5.44532 0.0168797 5.34784C-0.00842854 5.25036 -0.0143581 5.14867 -0.000557841 5.0488C0.0132424 4.94893 0.0464919 4.85291 0.0972218 4.76642C0.147952 4.67994 0.215131 4.60474 0.29478 4.54529C0.37278 4.48253 0.462383 4.43655 0.558199 4.41013C0.654016 4.3837 0.754067 4.37736 0.852338 4.39151C0.950608 4.40565 1.04507 4.43997 1.13004 4.49242C1.21501 4.54487 1.28873 4.61435 1.34677 4.69669L2.60477 6.3999L5.77475 1.17978C5.82302 1.08672 5.88948 1.0048 5.97002 0.939128C6.05055 0.873454 6.14343 0.825427 6.24287 0.798032C6.34232 0.770637 6.44622 0.76446 6.5481 0.779884C6.64998 0.795307 6.74767 0.832003 6.8351 0.887689C6.92253 0.943376 6.99782 1.01686 7.05631 1.10358C7.11479 1.1903 7.15522 1.2884 7.17507 1.39178C7.19492 1.49516 7.19377 1.60161 7.17169 1.70452C7.14962 1.80742 7.10708 1.90458 7.04674 1.98996L3.30376 8.15836C3.24024 8.26382 3.15223 8.35159 3.04756 8.41388C2.94288 8.47616 2.82479 8.51102 2.70377 8.51537H2.67277Z" fill="white"/>
</svg>
