<svg width="18" height="17" viewBox="0 0 18 17" fill="none" xmlns="http://www.w3.org/2000/svg">
<path d="M14.043 3.55005H11.2159V5.23705H14.043C14.879 5.23705 15.543 5.65905 15.543 6.04605V13.533C15.543 13.92 14.881 14.342 14.043 14.342H3.41274C2.57673 14.342 1.91271 13.92 1.91271 13.533V6.05005C1.91271 5.66305 2.57473 5.24105 3.41274 5.24105H6.23481V3.55005H3.41274C1.63571 3.55005 0.242676 4.64005 0.242676 6.05005V13.537C0.242676 14.943 1.63571 16.037 3.41274 16.037H14.073C15.85 16.037 17.243 14.947 17.243 13.537V6.05005C17.208 4.64405 15.815 3.55005 14.043 3.55005Z" fill="#959DB3"/>
<path d="M11.3093 8.14908C11.1979 8.14732 11.0872 8.16821 10.9841 8.2105C10.8809 8.25279 10.7875 8.31558 10.7093 8.39508L9.6543 9.45008L9.6543 0.873085C9.6582 0.759871 9.63927 0.647032 9.59863 0.54129C9.55799 0.435548 9.49649 0.339068 9.41777 0.2576C9.33906 0.176131 9.24475 0.111341 9.14047 0.0670917C9.03619 0.022842 8.92407 3.79304e-05 8.81078 3.79304e-05C8.6975 3.79304e-05 8.58538 0.022842 8.48109 0.0670917C8.37681 0.111341 8.2825 0.176131 8.20379 0.2576C8.12508 0.339068 8.06357 0.435548 8.02293 0.54129C7.9823 0.647032 7.96337 0.759871 7.96726 0.873085L7.96726 9.52008L6.84224 8.39508C6.68305 8.23607 6.46724 8.14675 6.24223 8.14675C6.01722 8.14675 5.80141 8.23607 5.64221 8.39508C5.48837 8.55697 5.40259 8.77176 5.40259 8.99508C5.40259 9.21841 5.48837 9.4332 5.64221 9.59508L8.18127 12.1211C8.25941 12.2006 8.35288 12.2634 8.45602 12.3057C8.55916 12.348 8.66982 12.3689 8.78128 12.3671V12.3671C8.89274 12.3689 9.0034 12.348 9.10654 12.3057C9.20968 12.2634 9.30315 12.2006 9.38129 12.1211L11.9073 9.59008C12.0612 9.4282 12.147 9.21341 12.147 8.99008C12.147 8.76676 12.0612 8.55197 11.9073 8.39008C11.7478 8.23183 11.532 8.14336 11.3073 8.14408L11.3093 8.14908Z" fill="#959DB3"/>
</svg>
