<svg width="16" height="18" viewBox="0 0 16 18" fill="none" xmlns="http://www.w3.org/2000/svg">
<path d="M12.509 17.1941H2.124C1.81581 17.1911 1.52135 17.0647 1.3052 16.8424C1.08905 16.6201 0.968868 16.3202 0.971 16.0085V3.75562H0.586C0.430583 3.75562 0.281532 3.69316 0.171635 3.58198C0.0617391 3.47081 0 3.32003 0 3.1628C0 3.00558 0.0617391 2.85479 0.171635 2.74362C0.281532 2.63245 0.430583 2.56999 0.586 2.56999H3.886C4.16193 1.81634 4.6583 1.16563 5.309 0.704546C5.95309 0.246061 6.72144 0 7.509 0C8.29656 0 9.06491 0.246061 9.709 0.704546C10.3593 1.16642 10.855 1.81786 11.13 2.57201H14.43C14.5854 2.57201 14.7345 2.63447 14.8444 2.74564C14.9543 2.85682 15.016 3.0076 15.016 3.16483C15.016 3.32205 14.9543 3.47283 14.8444 3.58401C14.7345 3.69518 14.5854 3.75764 14.43 3.75764H13.66V16.0085C13.6621 16.3199 13.5422 16.6195 13.3265 16.8417C13.1108 17.0639 12.8168 17.1906 12.509 17.1941ZM10.394 8.69641C10.5482 8.69774 10.6955 8.76092 10.8037 8.87206C10.9119 8.98321 10.9721 9.13324 10.971 9.28922V16.0085H12.509V3.75562H2.124V16.0085H3.663V9.28922C3.663 9.21257 3.67792 9.13666 3.70692 9.06584C3.73592 8.99503 3.77842 8.93068 3.832 8.87648C3.88558 8.82227 3.94919 8.77928 4.01919 8.74994C4.0892 8.72061 4.16423 8.70551 4.24 8.70551C4.31577 8.70551 4.3908 8.72061 4.46081 8.74994C4.53081 8.77928 4.59442 8.82227 4.648 8.87648C4.70158 8.93068 4.74408 8.99503 4.77308 9.06584C4.80207 9.13666 4.817 9.21257 4.817 9.28922V16.0085H6.74V6.91695C6.74 6.76214 6.80079 6.61368 6.909 6.50421C7.01721 6.39474 7.16397 6.33324 7.317 6.33324C7.47003 6.33324 7.61679 6.39474 7.725 6.50421C7.83321 6.61368 7.894 6.76214 7.894 6.91695V16.0074H9.817V9.28922C9.81593 9.13324 9.8761 8.98321 9.98428 8.87206C10.0925 8.76092 10.2398 8.69774 10.394 8.69641ZM7.509 1.18608C7.01569 1.14132 6.52061 1.24982 6.08983 1.49708C5.65905 1.74435 5.31305 2.11863 5.098 2.56999H9.92C9.70098 2.12188 9.35418 1.75049 8.9244 1.5038C8.49462 1.25711 8.00159 1.14643 7.509 1.18608Z" fill="#FD7676"/>
</svg>
