<svg width="18" height="18" viewBox="0 0 18 18" fill="none" xmlns="http://www.w3.org/2000/svg">
<path d="M9 0C4.02991 0 0 4.02991 0 9C0 13.9701 4.02991 18 9 18C13.9701 18 18 13.9701 18 9C18 4.02991 13.9701 0 9 0ZM9 16.7143C4.74107 16.7143 1.28571 13.2589 1.28571 9C1.28571 4.74107 4.74107 1.28571 9 1.28571C13.2589 1.28571 16.7143 4.74107 16.7143 9C16.7143 13.2589 13.2589 16.7143 9 16.7143ZM7.71429 10.5268L4.37946 7.19196L2.57143 9L7.71429 14.1429L14.7857 7.07143L12.9777 5.26339L7.71429 10.5268Z" fill="white"/>
</svg>
