<svg width="22" height="20" viewBox="0 0 22 20" fill="none" xmlns="http://www.w3.org/2000/svg">
<path d="M21.2748 17.983C21.6204 17.397 21.8036 16.7294 21.8055 16.049C21.8075 15.3687 21.6281 14.7001 21.2858 14.112L14.2658 1.96204C13.9281 1.37029 13.44 0.878291 12.851 0.535883C12.262 0.193475 11.5929 0.0128176 10.9116 0.0122086C10.2302 0.0115995 9.56084 0.191061 8.97119 0.532415C8.38154 0.873769 7.89257 1.36489 7.55382 1.95604L0.521818 14.123C0.181799 14.7128 0.00300947 15.3816 0.00341867 16.0624C0.00382787 16.7431 0.183422 17.4117 0.524149 18.0011C0.864876 18.5904 1.35473 19.0797 1.94448 19.4197C2.53422 19.7597 3.20308 19.9385 3.88382 19.938H17.9018C18.5871 19.9418 19.2611 19.7626 19.854 19.4189C20.4469 19.0752 20.9374 18.5796 21.2748 17.983V17.983ZM19.7508 17.112C19.5649 17.4381 19.2958 17.709 18.9709 17.897C18.6461 18.085 18.2771 18.1833 17.9018 18.182H3.87782C3.50779 18.1842 3.14381 18.0881 2.82303 17.9036C2.50224 17.7192 2.23612 17.4529 2.05182 17.132C1.861 16.808 1.75988 16.4389 1.75882 16.0629C1.75777 15.6868 1.85682 15.3172 2.04582 14.992L9.07182 2.83004C9.25616 2.50681 9.52274 2.23811 9.84449 2.05121C10.1662 1.86431 10.5317 1.76586 10.9038 1.76586C11.2759 1.76586 11.6414 1.86431 11.9631 2.05121C12.2849 2.23811 12.5515 2.50681 12.7358 2.83004L19.7628 14.992C19.9497 15.3141 20.0473 15.6802 20.0453 16.0525C20.0434 16.4249 19.9421 16.79 19.7518 17.11L19.7508 17.112Z" fill="#FD7676"/>
</svg>
