<svg width="20" height="23" viewBox="0 0 17 20" fill="none" xmlns="http://www.w3.org/2000/svg">
<path d="M13.8 7.01707H10.973V8.70407H13.8C14.636 8.70407 15.3 9.12607 15.3 9.51307V17.0001C15.3 17.3871 14.638 17.8091 13.8 17.8091H3.17C2.334 17.8091 1.67 17.3871 1.67 17.0001V9.51707C1.67 9.13007 2.332 8.70807 3.17 8.70807H5.992V7.01707H3.17C1.393 7.01707 0 8.10707 0 9.51707V17.0041C0 18.4101 1.393 19.5041 3.17 19.5041H13.83C15.607 19.5041 17 18.4141 17 17.0041V9.51707C16.965 8.11107 15.572 7.01707 13.8 7.01707Z" fill="#959DB3"/>
<path d="M6.00388 4.71408C6.11534 4.71584 6.22599 4.69495 6.32913 4.65266C6.43227 4.61037 6.52574 4.54758 6.60388 4.46808L7.65888 3.41308V11.9901C7.65498 12.1033 7.67391 12.2161 7.71455 12.3219C7.75518 12.4276 7.81669 12.5241 7.8954 12.6056C7.97411 12.687 8.06842 12.7518 8.1727 12.7961C8.27698 12.8403 8.3891 12.8631 8.50238 12.8631C8.61566 12.8631 8.72778 12.8403 8.83206 12.7961C8.93634 12.7518 9.03065 12.687 9.10936 12.6056C9.18807 12.5241 9.24958 12.4276 9.29021 12.3219C9.33085 12.2161 9.34978 12.1033 9.34588 11.9901V3.34308L10.4709 4.46808C10.6301 4.62709 10.8459 4.71641 11.0709 4.71641C11.2959 4.71641 11.5117 4.62709 11.6709 4.46808C11.8247 4.30619 11.9105 4.0914 11.9105 3.86808C11.9105 3.64475 11.8247 3.42996 11.6709 3.26808L9.13188 0.742075C9.05374 0.662575 8.96027 0.599776 8.85713 0.557489C8.75399 0.515202 8.64334 0.494309 8.53188 0.496075V0.496075C8.42042 0.494309 8.30977 0.515202 8.20663 0.557489C8.10349 0.599776 8.01002 0.662575 7.93188 0.742075L5.40588 3.27308C5.25204 3.43496 5.16626 3.64975 5.16626 3.87308C5.16626 4.0964 5.25204 4.31119 5.40588 4.47308C5.56539 4.63133 5.78119 4.7198 6.00588 4.71908L6.00388 4.71408Z" fill="#959DB3"/>
</svg>
