<svg width="15" height="17" viewBox="0 0 15 17" fill="none" xmlns="http://www.w3.org/2000/svg">
<path d="M12.5 17H2.11497C1.80677 16.9971 1.51231 16.8721 1.29617 16.6524C1.08002 16.4327 0.959835 16.1362 0.961967 15.828V3.71599H0.576967C0.42155 3.71599 0.272499 3.65425 0.162602 3.54435C0.0527059 3.43446 -0.0090332 3.2854 -0.0090332 3.12999C-0.0090332 2.97457 0.0527059 2.82552 0.162602 2.71562C0.272499 2.60573 0.42155 2.54399 0.576967 2.54399H3.87697C4.1529 1.799 4.64927 1.15577 5.29997 0.699988C5.94406 0.246773 6.7124 0.00354004 7.49997 0.00354004C8.28753 0.00354004 9.05588 0.246773 9.69997 0.699988C10.3503 1.15655 10.846 1.8005 11.121 2.54599H14.421C14.5764 2.54599 14.7254 2.60773 14.8353 2.71762C14.9452 2.82752 15.007 2.97657 15.007 3.13199C15.007 3.2874 14.9452 3.43646 14.8353 3.54635C14.7254 3.65625 14.5764 3.71799 14.421 3.71799H13.651V15.828C13.6531 16.1358 13.5332 16.432 13.3175 16.6517C13.1018 16.8713 12.8078 16.9966 12.5 17V17ZM10.385 8.59999C10.5392 8.60131 10.6865 8.66376 10.7947 8.77363C10.9029 8.8835 10.963 9.0318 10.962 9.18599V15.828H12.5V3.71599H2.11497V15.828H3.65397V9.18599C3.65397 9.11021 3.66889 9.03518 3.69789 8.96518C3.72689 8.89517 3.76939 8.83157 3.82297 8.77799C3.87655 8.72441 3.94015 8.68191 4.01016 8.65291C4.08016 8.62391 4.15519 8.60899 4.23097 8.60899C4.30674 8.60899 4.38177 8.62391 4.45178 8.65291C4.52178 8.68191 4.58539 8.72441 4.63897 8.77799C4.69255 8.83157 4.73505 8.89517 4.76405 8.96518C4.79304 9.03518 4.80797 9.11021 4.80797 9.18599V15.828H6.73097V6.84099C6.73097 6.68796 6.79176 6.5412 6.89997 6.43299C7.00817 6.32478 7.15494 6.26399 7.30797 6.26399C7.461 6.26399 7.60776 6.32478 7.71597 6.43299C7.82418 6.5412 7.88497 6.68796 7.88497 6.84099V15.827H9.80797V9.18599C9.8069 9.0318 9.86706 8.8835 9.97524 8.77363C10.0834 8.66376 10.2308 8.60131 10.385 8.59999V8.59999ZM7.49997 1.17599C7.00665 1.13175 6.51158 1.23899 6.0808 1.48342C5.65002 1.72784 5.30402 2.09782 5.08897 2.54399H9.91097C9.69195 2.10103 9.34515 1.73391 8.91537 1.49006C8.48558 1.2462 7.99256 1.1368 7.49997 1.17599V1.17599Z" fill="white"/>
</svg>
